<?xml version="1.0" encoding="utf-8"?>
<!-- Generator: Adobe Illustrator 21.1.0, SVG Export Plug-In . SVG Version: 6.00 Build 0)  -->
<svg version="1.1" id="Camada_1" xmlns="http://www.w3.org/2000/svg" xmlns:xlink="http://www.w3.org/1999/xlink" x="0px" y="0px"
	 viewBox="0 0 1548 1080" style="enable-background:new 0 0 1548 1080;" xml:space="preserve">
<style type="text/css">
	.st0{fill:#FFFFFF;stroke:url(#SVGID_1_);stroke-width:30;stroke-miterlimit:10;}
	.st1{fill:#FFFFFF;}
</style>
<g>
	<linearGradient id="SVGID_1_" gradientUnits="userSpaceOnUse" x1="539.1115" y1="1069.5122" x2="539.1115" y2="13.9039">
		<stop  offset="0" style="stop-color:#FFFF00"/>
		<stop  offset="1" style="stop-color:#F7931E"/>
	</linearGradient>
	<polyline class="st0" points="934.8,804.1 887.7,1052 28.8,890.3 190.5,31.4 1049.4,193.1 1001.8,447.9 	"/>
	<g>
		<path class="st1" d="M505.1,709.2c-9.3,4.7-28,9.3-51.9,9.3c-55.4,0-97.1-35-97.1-99.5c0-61.5,41.7-103.3,102.7-103.3
			c24.5,0,40,5.3,46.7,8.8l-6.1,20.7c-9.6-4.7-23.3-8.2-39.7-8.2c-46.1,0-76.7,29.5-76.7,81.1c0,48.1,27.7,79,75.5,79
			c15.5,0,31.2-3.2,41.4-8.2L505.1,709.2z"/>
		<path class="st1" d="M698.8,615.3c0,67.7-41.1,103.5-91.3,103.5c-51.9,0-88.4-40.3-88.4-99.8c0-62.4,38.8-103.3,91.3-103.3
			C664.1,515.8,698.8,556.9,698.8,615.3z M546.2,618.5c0,42,22.8,79.6,62.7,79.6c40.3,0,63-37,63-81.7c0-39.1-20.4-79.9-62.7-79.9
			C567.2,536.5,546.2,575.3,546.2,618.5z"/>
		<path class="st1" d="M731.8,715.6V519h27.7l63,99.5c14.6,23,26,43.8,35.3,63.9l0.6-0.3c-2.3-26.3-2.9-50.2-2.9-80.8V519h23.9
			v196.6h-25.7l-62.4-99.8c-13.7-21.9-26.8-44.3-36.8-65.6l-0.9,0.3c1.5,24.8,2,48.4,2,81.1v84H731.8z"/>
		<path class="st1" d="M1025.5,623.4h-76.4v70.9h85.2v21.3H923.7V519h106.2v21.3h-80.8v62.1h76.4V623.4z"/>
		<path class="st1" d="M1204.6,709.2c-9.3,4.7-28,9.3-51.9,9.3c-55.4,0-97.1-35-97.1-99.5c0-61.5,41.7-103.3,102.7-103.3
			c24.5,0,40,5.3,46.7,8.8l-6.1,20.7c-9.6-4.7-23.3-8.2-39.7-8.2c-46.1,0-76.7,29.5-76.7,81.1c0,48.1,27.7,79,75.5,79
			c15.5,0,31.2-3.2,41.4-8.2L1204.6,709.2z"/>
		<path class="st1" d="M1281.9,540.6h-59.8V519h145.6v21.6h-60.1v175h-25.7V540.6z"/>
		<path class="st1" d="M1399.4,653.8l-20.4,61.8h-26.3l66.8-196.6h30.6l67.1,196.6h-27.1l-21-61.8H1399.4z M1463.9,633.9l-19.3-56.6
			c-4.4-12.8-7.3-24.5-10.2-35.9h-0.6c-2.9,11.7-6.1,23.6-9.9,35.6l-19.3,56.9H1463.9z"/>
	</g>
</g>
<g>
</g>
<g>
</g>
<g>
</g>
<g>
</g>
<g>
</g>
</svg>
